<?xml version="1.0" encoding="UTF-8"?>
<svg xmlns="http://www.w3.org/2000/svg" xmlns:xlink="http://www.w3.org/1999/xlink" width="3000" height="3000" viewBox="0 0 3000 3000">
<path fill-rule="nonzero" fill="rgb(94.921875%, 76.951599%, 55.271912%)" fill-opacity="1" d="M 2001 2166.601562 C 2017.949219 2244.691406 2012.011719 2326.019531 1999.351562 2404.949219 C 1986.691406 2483.878906 1967.398438 2561.699219 1957.648438 2641.019531 C 1954.320312 2668.078125 1952.910156 2698.199219 1969.621094 2719.710938 C 1985.101562 2739.628906 2011.890625 2746.5 2036.820312 2750.308594 C 2092.199219 2758.769531 2148.929688 2758.410156 2204.191406 2749.230469 C 2239.558594 2743.351562 2277.421875 2731.769531 2297.308594 2701.949219 C 2316.628906 2672.96875 2313.539062 2634.960938 2308.140625 2600.519531 C 2296.261719 2524.738281 2276.671875 2450.371094 2263.710938 2374.769531 C 2250.75 2299.171875 2244.449219 2221.261719 2259.269531 2145.988281 C 2175.570312 2135.011719 2089.351562 2143.558594 2001 2166.601562 "/>
<path fill-rule="nonzero" fill="rgb(65.039062%, 40.795898%, 19.604492%)" fill-opacity="1" d="M 2573.878906 1039.441406 C 2570.820312 1057.199219 2565.660156 1074.601562 2558.21875 1091.21875 C 2524.109375 1167.121094 2448.839844 1215.058594 2375.519531 1254.328125 C 2141.070312 1379.820312 1883.339844 1461.660156 1619.429688 1494.511719 C 1239.058594 1541.851562 948.148438 1506.121094 664.261719 1467.058594 C 586.378906 1456.351562 500.699219 1438.378906 454.558594 1374.78125 C 432.359375 1344.179688 423.148438 1307.941406 422.640625 1270.261719 C 422.039062 1226.308594 433.320312 1180.5 449.699219 1139.519531 C 472.621094 1082.339844 503.460938 1029.808594 538.679688 979.800781 C 569.429688 936.089844 603.480469 894.269531 638.398438 852.960938 C 700.53125 779.460938 765.511719 707.460938 819.691406 628.589844 C 900.75 510.71875 960.449219 374.21875 1070.039062 282.300781 C 1208.011719 166.558594 1417.230469 144.238281 1576.5 228.359375 C 1669.921875 277.648438 1743.238281 357.570312 1830.480469 417.089844 C 1921.320312 479.070312 2025.03125 517.648438 2127.78125 558.089844 C 2160.628906 571.050781 2193.359375 584.191406 2225.519531 598.351562 C 2235.78125 602.878906 2246.070312 607.558594 2256.300781 612.449219 C 2340.390625 652.261719 2421.839844 703.320312 2482.351562 771.238281 C 2509.679688 801.871094 2532.75 835.949219 2549.789062 873.960938 C 2555.699219 887.128906 2560.769531 900.78125 2564.910156 914.730469 C 2576.96875 955.351562 2580.988281 998.460938 2573.878906 1039.441406 "/>
<path fill-rule="nonzero" fill="rgb(58.006287%, 36.497498%, 17.30957%)" fill-opacity="1" d="M 2573.878906 1039.441406 C 2570.820312 1057.199219 2565.660156 1074.601562 2558.21875 1091.21875 C 2524.109375 1167.121094 2448.839844 1215.058594 2375.519531 1254.328125 C 2141.070312 1379.820312 1883.339844 1461.660156 1619.429688 1494.511719 C 1239.058594 1541.851562 948.148438 1506.121094 664.261719 1467.058594 C 586.378906 1456.351562 500.699219 1438.378906 454.558594 1374.78125 C 432.359375 1344.179688 423.148438 1307.941406 422.640625 1270.261719 C 426.089844 1261.140625 430.261719 1252.378906 435.089844 1244.101562 C 474.390625 1176.871094 545.070312 1134.988281 614.460938 1099.679688 C 1123.949219 840.300781 1725.179688 783.089844 2285.25 897.839844 C 2357.28125 912.601562 2430 930.601562 2492.941406 968.640625 C 2523.570312 987.179688 2551.769531 1011.238281 2573.878906 1039.441406 "/>
<path fill-rule="nonzero" fill="rgb(94.921875%, 76.951599%, 55.271912%)" fill-opacity="1" d="M 2317.289062 1197.058594 C 2290.738281 1210.410156 2263.949219 1223.21875 2236.859375 1235.429688 C 2230.710938 1238.25 2224.558594 1240.980469 2218.378906 1243.710938 C 2087.191406 1301.519531 1950.179688 1346.191406 1810.109375 1376.820312 C 1801.980469 1378.621094 1793.789062 1380.328125 1785.660156 1382.039062 C 1748.28125 1389.75 1710.71875 1396.5 1672.949219 1402.199219 C 1755.511719 1796.070312 1757.488281 2202.898438 1758.78125 2604.628906 C 1758.929688 2661.089844 1757.128906 2723.070312 1719.75 2765.371094 C 1682.191406 2807.878906 1620.238281 2817.179688 1563.628906 2820.300781 C 1488.839844 2824.410156 1413.691406 2822.398438 1339.230469 2814.269531 C 1294.980469 2809.441406 1247.699219 2800.859375 1216.320312 2769.269531 C 1163.820312 2716.46875 1180.140625 2629.351562 1197.871094 2557.050781 C 1288.828125 2186.730469 1319.699219 1801.769531 1289.429688 1421.671875 C 1201.558594 1417.410156 1115.308594 1412.398438 1030.050781 1406.96875 C 1019.851562 1406.339844 1009.648438 1405.648438 999.539062 1405.019531 C 905.101562 1398.898438 811.710938 1392.359375 718.351562 1385.789062 C 691.078125 1383.839844 663.300781 1381.828125 637.738281 1372.46875 C 635.578125 1371.71875 633.390625 1370.851562 631.261719 1369.949219 C 627.78125 1368.449219 624.300781 1366.800781 620.941406 1364.96875 C 613.921875 1361.160156 607.261719 1356.601562 601.261719 1351.351562 C 579.511719 1332.421875 578.941406 1298.789062 599.039062 1278.121094 C 675.71875 1199.191406 783.238281 1155.929688 891.300781 1123.648438 C 905.21875 1119.480469 919.109375 1115.519531 933 1111.648438 C 935.910156 1110.839844 938.878906 1110 941.820312 1109.21875 C 1043.941406 1081.199219 1147.441406 1056.570312 1251.808594 1036.378906 C 1258.410156 1035.058594 1265.039062 1033.828125 1271.671875 1032.601562 C 1399.441406 1008.539062 1528.441406 991.199219 1657.589844 982.589844 C 1664.609375 982.109375 1671.601562 981.691406 1678.648438 981.269531 C 1818.058594 972.960938 1957.648438 974.941406 2096.070312 989.671875 C 2105.429688 990.691406 2114.789062 991.738281 2124.121094 992.851562 C 2180.160156 999.511719 2236.078125 1008.300781 2291.640625 1019.398438 C 2338.5 1028.761719 2394.660156 1049.851562 2400.058594 1097.339844 C 2405.25 1143.179688 2358.480469 1176.300781 2317.289062 1197.058594 "/>
<path fill-rule="nonzero" fill="rgb(67.1875%, 55.664062%, 42.405701%)" fill-opacity="1" d="M 2236.859375 1235.398438 C 2230.710938 1238.21875 2224.558594 1240.949219 2218.378906 1243.679688 C 2215.980469 1243.171875 2213.578125 1242.71875 2211.179688 1242.210938 C 2104.949219 1221.75 2003.191406 1221.75 1897.410156 1235.25 C 1839.449219 1242.058594 1785.601562 1251.148438 1733.070312 1269.871094 C 1705.949219 1278.148438 1678.140625 1288.46875 1656.691406 1301.699219 C 1658.519531 1308.71875 1660.199219 1315.710938 1661.699219 1322.820312 C 1664.398438 1335.449219 1666.648438 1348.5 1668.871094 1360.980469 C 1671.839844 1360.859375 1674.898438 1361.28125 1677.78125 1360.980469 C 1686 1360.859375 1694.160156 1360.828125 1702.378906 1360.949219 C 1722.539062 1361.398438 1742.851562 1362.148438 1762.738281 1365.71875 C 1778.820312 1368.179688 1794.570312 1372.078125 1810.078125 1376.820312 C 1801.949219 1378.621094 1793.761719 1380.328125 1785.628906 1382.039062 C 1782.058594 1381.171875 1778.519531 1380.390625 1774.949219 1379.730469 C 1740.421875 1372.230469 1702.261719 1372.078125 1670.910156 1372.621094 C 1672.558594 1381.828125 1674.269531 1390.589844 1676.191406 1398.449219 C 1675.859375 1402.949219 1669.109375 1403.820312 1667.578125 1399.648438 C 1664.730469 1390.828125 1660.199219 1376.488281 1659.359375 1371.988281 C 1654.230469 1349.761719 1648.261719 1323.089844 1642.679688 1303.648438 C 1637.820312 1288.019531 1634.371094 1273.800781 1626.179688 1264.589844 C 1621.171875 1258.859375 1602.871094 1247.039062 1591.078125 1239.269531 C 1574.96875 1229.820312 1548.359375 1219.621094 1526.101562 1217.339844 C 1492.828125 1214.339844 1454.941406 1221.210938 1417.019531 1224.449219 C 1385.910156 1228.921875 1360.738281 1231.46875 1334.128906 1243.5 C 1315.859375 1251.960938 1304.96875 1257.660156 1294.410156 1271.671875 C 1290.359375 1277.101562 1289.160156 1294.199219 1288.828125 1308.75 C 1287.601562 1344.03125 1290 1377.359375 1290.960938 1415.21875 C 1291.828125 1420.5 1284.238281 1423.078125 1281.75 1418.398438 C 1279.890625 1411.890625 1280.789062 1404.601562 1280.101562 1397.789062 C 1279.589844 1384.859375 1278.75 1371.871094 1278.03125 1358.941406 C 1271.730469 1358.730469 1265.429688 1358.609375 1259.128906 1358.578125 C 1215 1357.050781 1162.320312 1368.210938 1114.230469 1378.800781 C 1087.199219 1385.371094 1058.671875 1395.269531 1030.019531 1407.03125 C 1019.820312 1406.398438 1009.621094 1405.710938 999.511719 1405.078125 C 1046.191406 1383.75 1097.070312 1366.019531 1145.910156 1357.621094 C 1168.558594 1353.359375 1191.210938 1348.949219 1214.101562 1346.371094 C 1235.160156 1344.421875 1256.371094 1344.71875 1277.460938 1345.769531 C 1277.011719 1334.160156 1276.800781 1322.550781 1276.949219 1310.941406 C 1262.578125 1307.671875 1246.140625 1303.621094 1228.019531 1300.171875 C 1189.441406 1292.671875 1150.441406 1287.601562 1111.351562 1283.789062 C 1010.191406 1272.359375 897.871094 1284 803.910156 1309.800781 C 747.210938 1326.898438 691.738281 1348.230469 637.710938 1372.53125 C 635.550781 1371.78125 633.359375 1370.910156 631.230469 1370.011719 C 627.75 1368.511719 624.269531 1366.859375 620.910156 1365.03125 C 646.410156 1352.96875 672.601562 1342.378906 698.789062 1331.820312 C 753.269531 1309.589844 809.519531 1291.558594 867.480469 1280.878906 C 948.691406 1265.128906 1032.269531 1261.378906 1114.558594 1270.261719 C 1169.339844 1275.78125 1224 1284.089844 1277.308594 1298.039062 C 1277.671875 1291.289062 1278.121094 1284.359375 1279.679688 1277.761719 C 1278.898438 1277.550781 1278.121094 1277.160156 1277.429688 1276.621094 C 1269.511719 1271.011719 1262.21875 1264.589844 1255.230469 1257.871094 C 1236.71875 1239.871094 1214.578125 1226.308594 1192.199219 1213.738281 C 1175.941406 1204.769531 1138.199219 1186.320312 1113.570312 1176.511719 C 1061.519531 1155.480469 1015.109375 1141.050781 962.699219 1131.300781 C 940.171875 1127.21875 915.148438 1124.851562 891.269531 1123.738281 C 905.191406 1119.570312 919.078125 1115.609375 932.96875 1111.738281 C 943.140625 1112.789062 953.28125 1114.171875 963.421875 1115.851562 C 1018.621094 1125.71875 1072.5 1142.609375 1124.21875 1164.058594 C 1164.238281 1181.339844 1203.898438 1200.238281 1239.75 1225.261719 C 1256.28125 1236.628906 1269.269531 1252.261719 1285.410156 1264.078125 C 1303.769531 1237.558594 1346.941406 1222.050781 1377.300781 1216.46875 C 1382.878906 1215.390625 1388.519531 1214.398438 1394.128906 1213.5 C 1387.351562 1188.269531 1369.648438 1158.808594 1350.300781 1134 C 1330.589844 1108.53125 1309.050781 1083.121094 1289.070312 1065.121094 C 1277.308594 1054.710938 1264.621094 1045.46875 1251.75 1036.441406 C 1258.351562 1035.121094 1264.980469 1033.890625 1271.609375 1032.660156 C 1279.890625 1038.628906 1288.019531 1044.808594 1295.820312 1051.410156 C 1313.371094 1067.128906 1329 1084.769531 1343.910156 1102.921875 C 1370.308594 1135.378906 1396.46875 1170.570312 1407.300781 1211.488281 C 1428.328125 1208.609375 1449.480469 1206.691406 1470.628906 1204.679688 C 1482.75 1203.570312 1494.898438 1202.398438 1507.050781 1202.160156 C 1513.710938 1189.859375 1521.960938 1171.648438 1529.460938 1155.898438 C 1559.941406 1095.359375 1598.488281 1037.96875 1648.019531 991.351562 C 1651.078125 988.351562 1654.289062 985.46875 1657.5 982.648438 C 1664.519531 982.171875 1671.511719 981.75 1678.558594 981.328125 C 1675.828125 983.398438 1673.128906 985.53125 1670.429688 987.660156 C 1623.839844 1027.710938 1584.929688 1080.480469 1552.921875 1137.511719 C 1544.488281 1151.640625 1531.949219 1180.890625 1520.398438 1202.308594 C 1522.5 1202.371094 1524.601562 1202.488281 1526.699219 1202.671875 C 1547.671875 1204.800781 1568.070312 1211.039062 1587.148438 1219.828125 C 1603.648438 1228.230469 1618.769531 1239.359375 1633.261719 1250.761719 C 1635.71875 1253.011719 1637.910156 1255.53125 1639.828125 1258.230469 C 1641.628906 1255.980469 1643.429688 1253.761719 1645.289062 1251.570312 C 1658.339844 1236.238281 1673.308594 1222.710938 1688.039062 1209.058594 C 1753.648438 1147.199219 1832.160156 1101.269531 1913.820312 1063.890625 C 1972.679688 1034.941406 2033.339844 1009.230469 2095.949219 989.730469 C 2105.308594 990.75 2114.671875 991.800781 2124 992.910156 C 2056.589844 1012.261719 1988.910156 1040.191406 1924.320312 1071.75 C 1843.890625 1108.53125 1771.648438 1148.699219 1704.898438 1208.308594 C 1682.429688 1228.921875 1662.628906 1245.210938 1645.589844 1268.191406 C 1647.960938 1273.109375 1649.820312 1278.269531 1651.410156 1283.398438 C 1652.160156 1285.828125 1652.820312 1288.230469 1653.539062 1290.660156 C 1660.289062 1286.640625 1667.191406 1282.859375 1674.210938 1279.351562 C 1698.570312 1267.679688 1724.941406 1260.871094 1750.46875 1252.199219 C 1801.53125 1235.820312 1854.960938 1228.738281 1908.03125 1222.320312 C 2016.269531 1209 2127.03125 1210.46875 2233.648438 1234.769531 C 2234.789062 1234.980469 2235.839844 1235.191406 2236.859375 1235.398438 "/>
<path fill-rule="nonzero" fill="rgb(65.039062%, 40.795898%, 19.604492%)" fill-opacity="1" d="M 2563.859375 2120.371094 C 2554.378906 2171.070312 2493 2190.328125 2442.089844 2198.371094 C 2199.089844 2236.648438 1951.5 2245.5 1706.398438 2224.621094 C 1665.71875 2221.140625 1648.648438 2169.539062 1658.820312 2131.53125 C 1668.988281 2093.550781 1698.179688 2064.089844 1726.261719 2036.519531 C 1795.320312 1968.691406 1871.011719 1898.070312 1955.609375 1853.820312 C 1981.859375 1840.109375 2008.921875 1828.921875 2036.941406 1821.148438 C 2066.011719 1813.050781 2096.070312 1808.671875 2127.179688 1808.941406 C 2272.828125 1810.109375 2395.171875 1913.101562 2503.589844 2010.390625 C 2504.488281 2011.171875 2505.390625 2012.011719 2506.289062 2012.820312 C 2527.019531 2031.628906 2548.5 2053.828125 2558.789062 2078.578125 C 2564.25 2091.808594 2566.589844 2105.789062 2563.859375 2120.371094 "/>
<path fill-rule="nonzero" fill="rgb(94.921875%, 94.921875%, 94.921875%)" fill-opacity="1" d="M 1832.191406 661.800781 C 1827.78125 640.921875 1814.730469 622.171875 1793.519531 606.660156 C 1750.890625 575.460938 1691.191406 578.160156 1654.769531 616.410156 C 1653.570312 617.671875 1652.371094 618.988281 1651.261719 620.308594 C 1630.589844 644.191406 1621.140625 678.511719 1630.558594 708.628906 C 1638.808594 735 1660.441406 755.910156 1685.699219 767.011719 C 1719.628906 781.890625 1761.238281 779.488281 1791.808594 758.578125 C 1822.410156 737.609375 1839.839844 698.070312 1832.191406 661.800781 Z M 1558.828125 328.109375 C 1554.449219 307.230469 1541.398438 288.480469 1520.21875 272.96875 C 1477.589844 241.769531 1417.890625 244.46875 1381.46875 282.71875 C 1380.269531 283.980469 1379.070312 285.300781 1377.960938 286.621094 C 1357.289062 310.5 1347.839844 344.820312 1357.261719 374.941406 C 1365.511719 401.308594 1387.140625 422.21875 1412.371094 433.320312 C 1446.300781 448.199219 1487.96875 445.800781 1518.511719 424.890625 C 1549.078125 403.921875 1566.511719 364.378906 1558.828125 328.109375 Z M 2256.300781 612.449219 C 2246.070312 607.589844 2235.78125 602.878906 2225.519531 598.351562 C 2193.359375 584.191406 2160.628906 571.050781 2127.78125 558.089844 C 2115.210938 566.070312 2104.800781 577.199219 2098.320312 590.699219 C 2079.300781 630.300781 2097.808594 683.519531 2137.230469 702.871094 C 2176.648438 722.21875 2230.050781 704.21875 2249.761719 664.949219 C 2257.738281 648.929688 2259.75 630.269531 2256.300781 612.449219 Z M 642.148438 854.578125 C 640.921875 854.011719 639.691406 853.46875 638.398438 852.929688 C 603.449219 894.238281 569.398438 936.058594 538.679688 979.769531 C 546.449219 991.140625 556.800781 1000.589844 569.25 1006.679688 C 608.671875 1026.03125 662.070312 1008.03125 681.78125 968.761719 C 701.429688 929.550781 684.628906 874.5 642.148438 854.578125 Z M 919.621094 745.261719 C 879.839844 726.628906 826.738281 745.589844 807.78125 785.191406 C 788.820312 824.789062 807.269531 878.011719 846.691406 897.359375 C 886.109375 916.710938 939.511719 898.710938 959.21875 859.441406 C 978.871094 820.199219 962.101562 765.179688 919.621094 745.261719 Z M 1305.78125 681.511719 C 1266 662.878906 1212.898438 681.839844 1193.941406 721.441406 C 1174.980469 761.039062 1193.429688 814.261719 1232.851562 833.609375 C 1272.269531 852.960938 1325.671875 834.960938 1345.378906 795.691406 C 1365.058594 756.480469 1348.261719 701.429688 1305.78125 681.511719 Z M 1071.839844 467.21875 C 1032.058594 448.589844 978.960938 467.550781 960 507.148438 C 941.039062 546.75 959.488281 599.96875 998.910156 619.320312 C 1038.328125 638.671875 1091.730469 620.671875 1111.441406 581.398438 C 1131.121094 542.160156 1114.320312 487.109375 1071.839844 467.21875 Z M 2036.910156 1821.148438 C 2008.890625 1828.921875 1981.828125 1840.078125 1955.578125 1853.820312 C 1956.058594 1871.28125 1965.929688 1888.738281 1981.738281 1896.539062 C 2003.941406 1907.460938 2034.089844 1897.289062 2045.191406 1875.179688 C 2053.769531 1858.019531 2050.078125 1835.640625 2036.910156 1821.148438 Z M 2506.261719 2012.789062 C 2492.011719 2015.851562 2478.988281 2024.96875 2472.660156 2038.171875 C 2461.949219 2060.519531 2472.359375 2090.550781 2494.589844 2101.46875 C 2516.820312 2112.328125 2546.941406 2102.21875 2558.039062 2080.109375 C 2558.308594 2079.601562 2558.519531 2079.089844 2558.761719 2078.578125 C 2548.46875 2053.828125 2526.988281 2031.628906 2506.261719 2012.789062 Z M 2154.089844 2098.171875 C 2131.679688 2087.671875 2101.738281 2098.351562 2091.03125 2120.671875 C 2080.351562 2143.019531 2090.761719 2173.050781 2112.988281 2183.96875 C 2135.21875 2194.828125 2165.339844 2184.71875 2176.441406 2162.609375 C 2187.511719 2140.441406 2178.03125 2109.421875 2154.089844 2098.171875 Z M 2285.308594 1884.960938 C 2262.898438 1874.460938 2232.960938 1885.140625 2222.28125 1907.488281 C 2211.570312 1929.808594 2221.980469 1959.839844 2244.210938 1970.730469 C 2266.441406 1981.589844 2296.558594 1971.480469 2307.660156 1949.371094 C 2318.761719 1927.199219 2309.308594 1896.210938 2285.308594 1884.960938 Z M 1962.71875 1979.21875 C 1940.308594 1968.71875 1910.371094 1979.371094 1899.660156 2001.71875 C 1888.980469 2024.039062 1899.390625 2054.070312 1921.589844 2064.960938 C 1943.820312 2075.878906 1973.96875 2065.710938 1985.070312 2043.601562 C 1996.171875 2021.460938 1986.660156 1990.410156 1962.71875 1979.21875 Z M 1797.75 2098.171875 C 1775.339844 2087.671875 1745.398438 2098.351562 1734.691406 2120.671875 C 1724.011719 2143.019531 1734.421875 2173.050781 1756.621094 2183.96875 C 1778.851562 2194.828125 1809 2184.71875 1820.101562 2162.609375 C 1831.199219 2140.441406 1821.691406 2109.421875 1797.75 2098.171875 Z M 2549.789062 873.988281 C 2532.71875 835.980469 2509.679688 801.898438 2482.351562 771.269531 C 2463.988281 779.101562 2448.148438 792.871094 2439.480469 810.988281 C 2420.460938 850.589844 2438.96875 903.808594 2478.390625 923.160156 C 2505.808594 936.628906 2539.980469 932.011719 2564.878906 914.761719 C 2560.769531 900.78125 2555.699219 887.128906 2549.789062 873.988281 "/>
</svg>
