<svg
  viewBox="0 0 160 160"
  xmlns="http://www.w3.org/2000/svg"
  aria-hidden="true"
>
  <ellipse cx="80" cy="120" rx="42" ry="10" fill="#000000" fill-opacity="0.08" />

  <path
    d="M40 82C40 70 52 60 80 60C108 60 120 70 120 82V100C120 112 108 120 80 120C52 120 40 112 40 100V82Z"
    fill="#e07a2d"
    stroke="#b85c1c"
    stroke-width="3"
  />

  <ellipse
    cx="80"
    cy="80"
    rx="40"
    ry="12"
    fill="#f4a45b"
    stroke="#b85c1c"
    stroke-width="3"
  />

  <path
    d="M52 78C52 54 62 38 80 38C98 38 108 54 108 78"
    stroke="#b85c1c"
    stroke-width="4"
    stroke-linecap="round"
    fill="none"
  />

  <path d="M60 70V110" stroke="#e08a3c" stroke-width="2" />
  <path d="M70 68V112" stroke="#e08a3c" stroke-width="2" />
  <path d="M90 68V112" stroke="#e08a3c" stroke-width="2" />
  <path d="M100 70V110" stroke="#e08a3c" stroke-width="2" />

  <path
    d="M48 88H112"
    stroke="#f7c08a"
    stroke-width="2"
    stroke-linecap="round"
  />
  <path
    d="M48 98H112"
    stroke="#f7c08a"
    stroke-width="2"
    stroke-linecap="round"
  />

  <circle cx="68" cy="86" r="4" fill="#000000" />
  <circle cx="92" cy="86" r="4" fill="#000000" />

  <path
    d="M70 102C76 96 84 96 90 102"
    stroke="#000000"
    stroke-width="2.5"
    stroke-linecap="round"
    fill="none"
  />
</svg>
